<svg xmlns="http://www.w3.org/2000/svg" width="20.421" height="20.423" viewBox="0 0 20.421 20.423">
  <path id="home" d="M20.372,8.882l0,0L12.04.55a1.88,1.88,0,0,0-2.659,0L1.054,8.876l-.008.009a1.879,1.879,0,0,0,1.251,3.2l.058,0h.332v6.131a2.2,2.2,0,0,0,2.2,2.2H8.147a.6.6,0,0,0,.6-.6V15.017a1,1,0,0,1,1-1h1.922a1,1,0,0,1,1,1v4.807a.6.6,0,0,0,.6.6h3.259a2.2,2.2,0,0,0,2.2-2.2V12.091h.308a1.88,1.88,0,0,0,1.331-3.209Zm-.847,1.812a.679.679,0,0,1-.483.2h-.906a.6.6,0,0,0-.6.6v6.729a1,1,0,0,1-1,1H13.872V15.017a2.2,2.2,0,0,0-2.2-2.2H9.749a2.2,2.2,0,0,0-2.2,2.2v4.208H4.887a1,1,0,0,1-1-1V11.493a.6.6,0,0,0-.6-.6H2.366A.683.683,0,0,1,1.9,9.727h0L10.227,1.4a.683.683,0,0,1,.966,0l8.329,8.329,0,0a.685.685,0,0,1,0,.966Zm0,0" transform="translate(-0.5 0.001)" fill="#f58216"/>
</svg>
