<svg id="Group_1089" data-name="Group 1089" xmlns="http://www.w3.org/2000/svg" width="14.391" height="14.376" viewBox="0 0 14.391 14.376">
  <path id="Path_78" data-name="Path 78" d="M417.332,1278.145v-1.106h1.119v1.086h7.425v-1.09h1.119v1.11h.639a1.681,1.681,0,0,1,1.729,1.715q0,4.917,0,9.835a1.678,1.678,0,0,1-1.728,1.715q-5.466,0-10.931,0a1.681,1.681,0,0,1-1.729-1.742q0-4.89,0-9.779a1.685,1.685,0,0,1,1.756-1.744Zm-1.236,4.168v.307q0,3.469,0,6.938c0,.538.19.73.723.73h10.7c.529,0,.719-.194.72-.733q0-3.469,0-6.938v-.3Zm1.242-3.02a5.911,5.911,0,0,0-.834.009.465.465,0,0,0-.4.455c-.021.465-.006.931-.006,1.407h12.135c0-.474.012-.932,0-1.388a.531.531,0,0,0-.489-.5c-.239-.019-.48,0-.751,0v1.1h-1.119v-1.087h-7.426v1.082h-1.109Z" transform="translate(-414.973 -1277.035)" fill="#f58216"/>
  <path id="Path_79" data-name="Path 79" d="M454.362,1393.135h-1.085v-1.1h1.085Z" transform="translate(-451.124 -1385.572)" fill="#f58216"/>
  <path id="Path_80" data-name="Path 80" d="M493.348,1392h1.086v1.088h-1.086Z" transform="translate(-488.942 -1385.535)" fill="#f58216"/>
  <path id="Path_81" data-name="Path 81" d="M534.417,1392.206v1.078h-1.1v-1.078Z" transform="translate(-526.666 -1385.732)" fill="#f58216"/>
  <path id="Path_82" data-name="Path 82" d="M574.328,1393.261h-1.089v-1.088h1.089Z" transform="translate(-564.342 -1385.701)" fill="#f58216"/>
  <path id="Path_83" data-name="Path 83" d="M614.4,1393.167h-1.091v-1.1H614.4Z" transform="translate(-602.162 -1385.605)" fill="#f58216"/>
  <path id="Path_84" data-name="Path 84" d="M453.2,1433.226v-1.088h1.093v1.088Z" transform="translate(-451.053 -1423.419)" fill="#f58216"/>
  <path id="Path_85" data-name="Path 85" d="M493.208,1433.231v-1.087H494.3v1.087Z" transform="translate(-488.81 -1423.424)" fill="#f58216"/>
  <path id="Path_86" data-name="Path 86" d="M534.328,1433.262h-1.089v-1.088h1.089Z" transform="translate(-526.591 -1423.453)" fill="#f58216"/>
  <path id="Path_87" data-name="Path 87" d="M574.375,1432.041v1.089h-1.094v-1.089Z" transform="translate(-564.382 -1423.327)" fill="#f58216"/>
  <path id="Path_88" data-name="Path 88" d="M613.2,1433.151v-1.086h1.088v1.086Z" transform="translate(-602.052 -1423.349)" fill="#f58216"/>
  <path id="Path_89" data-name="Path 89" d="M453.327,1472.02h1.089v1.088h-1.089Z" transform="translate(-451.171 -1461.059)" fill="#f58216"/>
  <path id="Path_90" data-name="Path 90" d="M494.4,1472.069v1.086h-1.091v-1.086Z" transform="translate(-488.905 -1461.105)" fill="#f58216"/>
  <path id="Path_91" data-name="Path 91" d="M534.362,1473.135h-1.085v-1.1h1.085Z" transform="translate(-526.626 -1461.075)" fill="#f58216"/>
  <path id="Path_92" data-name="Path 92" d="M573.092,1473.245v-1.078h1.1v1.078Z" transform="translate(-564.203 -1461.198)" fill="#f58216"/>
</svg>
