<svg xmlns="http://www.w3.org/2000/svg" width="261.896" height="261.896" viewBox="0 0 261.896 261.896">
  <path id="quotation-mark" d="M130.948,0C58.744,0,0,58.744,0,130.948S58.744,261.9,130.948,261.9,261.9,203.153,261.9,130.948,203.154,0,130.948,0ZM110.643,185.538Q99.172,196.331,81.91,196.329q-15.378,0-27.249-14.029-11.6-13.215-11.6-28.6,0-45.069,62.138-87.122c1.474-1,5.173-1.875,7.337.528l3.993,5.022c1.931,3.266-.408,6.294-1.922,7.55q-10.8,8.958-15.7,13.859a76.594,76.594,0,0,0-14.267,20.2c-.715,1.537,1.11,2.513,2.058,2.823q35.408,11.6,35.412,40.915Q122.107,174.749,110.643,185.538Zm89.84,0q-11.471,10.793-28.732,10.791-15.378,0-27.249-14.029-11.6-13.215-11.6-28.6,0-45.069,62.138-87.122c1.474-1,5.173-1.875,7.337.528l3.993,5.022c1.931,3.266-.408,6.294-1.922,7.55q-10.8,8.958-15.7,13.859a76.593,76.593,0,0,0-14.267,20.2c-.715,1.537,1.11,2.513,2.058,2.823q35.408,11.6,35.412,40.915Q211.947,174.749,200.483,185.538Z" fill="#414485" opacity="0.08"/>
</svg>
