<svg xmlns="http://www.w3.org/2000/svg" width="17.77" height="17.765" viewBox="0 0 17.77 17.765">
  <path id="Path_1271" data-name="Path 1271" d="M162.9,152.689h-8.329a.539.539,0,0,0-.1-.029,5.163,5.163,0,0,1-4.416-3.712c-.091-.32-.138-.652-.206-.978v-8.327c.011-.039.023-.077.032-.115a9.151,9.151,0,0,1,.323-1.286,5.05,5.05,0,0,1,4.222-3.28,4.435,4.435,0,0,1,.623-.035q3.686,0,7.373,0a4.97,4.97,0,0,1,2.948.907,5.082,5.082,0,0,1,2.247,4.358c0,2.405,0,4.81,0,7.215a5.173,5.173,0,0,1-.839,2.935,5.043,5.043,0,0,1-2.9,2.144C163.563,152.574,163.231,152.621,162.9,152.689Zm3.332-8.878c0-1.209.005-2.417,0-3.626a4.081,4.081,0,0,0-.088-.877,3.763,3.763,0,0,0-3.761-3q-3.644,0-7.288,0a3.882,3.882,0,0,0-.876.094,3.761,3.761,0,0,0-2.976,3.776q0,3.626,0,7.252a4.013,4.013,0,0,0,.085.86,3.755,3.755,0,0,0,3.721,3q3.687.016,7.374,0a3.693,3.693,0,0,0,3.1-1.585,3.741,3.741,0,0,0,.707-2.258C166.24,146.239,166.237,145.025,166.237,143.811Z" transform="translate(-149.856 -134.924)" fill="#fff"/>
</svg>
