<svg xmlns="http://www.w3.org/2000/svg" width="31.175" height="24.138" viewBox="0 0 31.175 24.138">
  <path id="quotation-mark" d="M55.536,87.712a7.437,7.437,0,0,1-5.3,1.992,6.466,6.466,0,0,1-5.03-2.59,7.858,7.858,0,0,1-2.141-5.279q0-8.319,11.47-16.082a1.1,1.1,0,0,1,1.354.1l.737.927a1.1,1.1,0,0,1-.355,1.394q-1.993,1.653-2.9,2.558a14.138,14.138,0,0,0-2.634,3.729c-.132.284.2.464.38.521q6.536,2.142,6.537,7.552A6.79,6.79,0,0,1,55.536,87.712Zm16.584,0a7.437,7.437,0,0,1-5.3,1.992,6.466,6.466,0,0,1-5.03-2.59,7.858,7.858,0,0,1-2.141-5.279q0-8.319,11.47-16.082a1.1,1.1,0,0,1,1.354.1l.737.927a1.1,1.1,0,0,1-.355,1.394q-1.993,1.653-2.9,2.558a14.138,14.138,0,0,0-2.634,3.729c-.132.284.2.464.38.521q6.536,2.142,6.537,7.552A6.79,6.79,0,0,1,72.12,87.712Z" transform="translate(-43.061 -65.566)" fill="#1d4382" opacity="0.5"/>
</svg>
