<svg xmlns="http://www.w3.org/2000/svg" width="17.25" height="23" viewBox="0 0 17.25 23">
  <g id="pdf" transform="translate(-64)">
    <g id="Group_5203" data-name="Group 5203" transform="translate(64)">
      <g id="Group_5202" data-name="Group 5202">
        <path id="Path_46197" data-name="Path 46197" d="M81.11,4.932,76.318.14A.479.479,0,0,0,75.979,0H65.917A1.919,1.919,0,0,0,64,1.917V21.083A1.919,1.919,0,0,0,65.917,23H79.333a1.919,1.919,0,0,0,1.917-1.917V5.271A.479.479,0,0,0,81.11,4.932Zm-4.651-3.3,3.156,3.156h-2.2a.96.96,0,0,1-.958-.958Zm3.833,19.447a.96.96,0,0,1-.958.958H65.917a.96.96,0,0,1-.958-.958V1.917a.96.96,0,0,1,.958-.958H75.5V3.833A1.919,1.919,0,0,0,77.417,5.75h2.875Z" transform="translate(-64 0)" fill="#f58216"/>
        <path id="Path_46198" data-name="Path 46198" d="M136.193,177.066a13.883,13.883,0,0,1-1.146-.989c-.365-.365-.69-.719-.973-1.056a10.729,10.729,0,0,0,.634-2.439c0-1.59-.575-1.917-1.437-1.917-.656,0-1.438.341-1.438,1.963A4.6,4.6,0,0,0,133,175.22c-.19.58-.413,1.248-.664,2-.121.362-.252.7-.39,1.007-.113.05-.222.1-.328.154-.381.19-.743.362-1.078.521-1.53.724-2.541,1.2-2.541,2.15,0,.687.746,1.112,1.438,1.112.891,0,2.236-1.19,3.219-3.195a19.062,19.062,0,0,1,3.289-.887,5.5,5.5,0,0,0,2.117,1.207c1.188,0,1.438-.687,1.438-1.263,0-1.133-1.294-1.133-1.917-1.133A11.347,11.347,0,0,0,136.193,177.066Zm-6.756,4.142a.757.757,0,0,1-.479-.154c0-.34,1.013-.82,1.993-1.284l.19-.089C130.421,180.724,129.709,181.208,129.438,181.208Zm3.354-8.579c0-1,.312-1,.479-1,.339,0,.479,0,.479.958a7.683,7.683,0,0,1-.381,1.5A2.944,2.944,0,0,1,132.792,172.629Zm.367,5.15q.045-.125.087-.253c.178-.533.338-1.013.481-1.444q.3.328.643.673c.09.09.313.292.609.545C134.388,177.429,133.76,177.588,133.159,177.779Zm5.383.249c0,.215,0,.3-.445.307a3.531,3.531,0,0,1-.8-.46c.135-.015.235-.022.291-.022C138.291,177.854,138.492,177.923,138.542,178.028Z" transform="translate(-125.125 -162.999)" fill="#f58216"/>
      </g>
    </g>
  </g>
</svg>
