<svg xmlns="http://www.w3.org/2000/svg" width="21.173" height="17.196" viewBox="0 0 21.173 17.196">
  <path id="Icon_awesome-twitter" data-name="Icon awesome-twitter" d="M19,7.666c.013.188.013.376.013.564A12.262,12.262,0,0,1,6.664,20.577,12.263,12.263,0,0,1,0,18.629a8.977,8.977,0,0,0,1.048.054,8.69,8.69,0,0,0,5.387-1.854,4.347,4.347,0,0,1-4.057-3.009,5.472,5.472,0,0,0,.82.067,4.589,4.589,0,0,0,1.142-.148A4.34,4.34,0,0,1,.86,9.48V9.426a4.37,4.37,0,0,0,1.961.551,4.346,4.346,0,0,1-1.343-5.8,12.334,12.334,0,0,0,8.947,4.541,4.9,4.9,0,0,1-.107-.994,4.343,4.343,0,0,1,7.51-2.969A8.543,8.543,0,0,0,20.582,3.7a4.328,4.328,0,0,1-1.908,2.391,8.7,8.7,0,0,0,2.5-.672A9.328,9.328,0,0,1,19,7.666Z" transform="translate(0 -3.381)" fill="#fff"/>
</svg>
