<svg xmlns="http://www.w3.org/2000/svg" width="20.688" height="13.799" viewBox="0 0 20.688 13.799">
  <path id="Path_53" data-name="Path 53" d="M772.985-1356.638c0-.008,0-.017-.006-.025a2.832,2.832,0,0,0-2.051-1.964,68.069,68.069,0,0,0-7.865-.365,62.04,62.04,0,0,0-7.88.4,2.833,2.833,0,0,0-2.042,1.984,23.315,23.315,0,0,0-.422,4.527,23.28,23.28,0,0,0,.431,4.6,2.849,2.849,0,0,0,2.038,1.883,62.16,62.16,0,0,0,7.874.4,62.058,62.058,0,0,0,7.88-.4,2.831,2.831,0,0,0,2.042-1.985,23.3,23.3,0,0,0,.422-4.493A23.282,23.282,0,0,0,772.985-1356.638Zm-6.559,4.893-5.194,2.758a.432.432,0,0,1-.2.049.43.43,0,0,1-.2-.051.376.376,0,0,1-.2-.328v-5.516a.376.376,0,0,1,.2-.328.433.433,0,0,1,.405,0l5.194,2.758a.376.376,0,0,1,.206.33A.376.376,0,0,1,766.426-1351.745Z" transform="translate(-752.719 1358.991)" fill="#fff"/>
</svg>
